<?xml version="1.0" encoding="utf-8"?>
<svg version="1.0" width="640.000000pt" height="133.000000pt" viewBox="0 0 640.000000 133.000000" preserveAspectRatio="xMidYMid meet" xmlns="http://www.w3.org/2000/svg">
  <defs>
    <linearGradient gradientUnits="userSpaceOnUse" x1="809.5" y1="280.227" x2="809.5" y2="926.143" id="gradient-0" gradientTransform="matrix(-0.014899, 0.999889, -0.532933, -0.00794, 1315.133948, 124.087521)">
      <stop offset="0" style="stop-color: rgb(28, 18, 236);"/>
      <stop offset="1" style="stop-color: rgb(11, 21, 240);"/>
    </linearGradient>
    <linearGradient gradientUnits="userSpaceOnUse" x1="1543.705" y1="286.11" x2="1543.705" y2="931.165" id="gradient-1" gradientTransform="matrix(0.002016, 0.999998, -1.148499, 0.002314, 2303.220702, -607.208507)">
      <stop offset="0" style="stop-color: rgb(70, 15, 196);"/>
      <stop offset="1" style="stop-color: rgb(44, 16, 222);"/>
    </linearGradient>
    <linearGradient gradientUnits="userSpaceOnUse" x1="2254.92" y1="283.693" x2="2254.92" y2="938.129" id="gradient-2" gradientTransform="matrix(0.00533, 0.999986, -0.97195, 0.005181, 2930.217077, -1276.71981)">
      <stop offset="0" style="stop-color: rgb(99, 13, 174);"/>
      <stop offset="1" style="stop-color: rgb(74, 10, 192);"/>
    </linearGradient>
    <linearGradient gradientUnits="userSpaceOnUse" x1="3077.815" y1="268.984" x2="3077.815" y2="928.034" id="gradient-3" gradientTransform="matrix(0.001291, 0.999999, -0.61315, 0.000792, 3478.234247, -2143.02853)">
      <stop offset="0" style="stop-color: rgb(132, 10, 145);"/>
      <stop offset="1" style="stop-color: rgb(106, 13, 146);"/>
    </linearGradient>
    <linearGradient gradientUnits="userSpaceOnUse" x1="3552.02" y1="281.131" x2="3552.02" y2="915.63" id="gradient-4" gradientTransform="matrix(-0.012737, -0.999919, 0.691349, -0.008806, 3237.284408, 4529.139417)">
      <stop offset="0" style="stop-color: rgb(132, 10, 144);"/>
      <stop offset="1" style="stop-color: rgb(160, 8, 127);"/>
    </linearGradient>
    <linearGradient gradientUnits="userSpaceOnUse" x1="4679.941" y1="280" x2="4679.941" y2="906.236" id="gradient-6" gradientTransform="matrix(-0.009043, 0.999959, -0.864869, -0.007821, 5335.944575, -3748.519861)">
      <stop offset="0" style="stop-color: rgb(198, 13, 80);"/>
      <stop offset="1" style="stop-color: rgb(192, 9, 99);"/>
    </linearGradient>
    <linearGradient gradientUnits="userSpaceOnUse" x1="5284.822" y1="281.473" x2="5284.822" y2="923.826" id="gradient-7" gradientTransform="matrix(-0.004014, 0.999992, -0.857105, -0.00344, 5909.853617, -4366.729585)">
      <stop offset="0" style="stop-color: rgb(231, 1, 65);"/>
      <stop offset="1" style="stop-color: rgb(198, 13, 80);"/>
    </linearGradient>
    <linearGradient gradientUnits="userSpaceOnUse" x1="4080.009" y1="276.508" x2="4080.009" y2="920.035" id="gradient-5" spreadMethod="pad" gradientTransform="matrix(-0.001897, 0.999999, -0.848587, -0.001609, 4662.573857, -3158.485644)">
      <stop offset="0" style="stop-color: rgb(192, 9, 99);"/>
      <stop offset="1" style="stop-color: rgb(160, 8, 127);"/>
    </linearGradient>
  </defs>
  <rect style="paint-order: fill; stroke-miterlimit: 6.44; stroke-linejoin: round; stroke: rgb(0, 0, 0); fill: rgb(37, 37, 37);" x="39.431" y="-0.929" width="549.11" height="134" rx="20" ry="20"/>
  <g transform="matrix(0.1, 0, 0, -0.1, 7.678463, 140.678452)" fill="#000000" stroke="none">
    <path d="M2170 930 c-114 -11 -156 -26 -185 -64 -24 -31 -34 -86 -17 -86 5 0 31 7 58 15 64 19 67 19 50 -7 -20 -33 -138 -439 -132 -455 16 -41 180 -63 292 -40 82 18 138 44 189 89 101 88 161 255 135 373 -22 99 -83 154 -194 174 -65 12 -83 12 -196 1z m163 -144 c39 -38 57 -96 57 -179 0 -41 -8 -69 -32 -117 -45 -88 -91 -122 -168 -128 -63 -5 -66 -3 -49 30 6 12 29 89 50 172 65 250 67 256 89 256 11 0 35 -15 53 -34z" style="paint-order: fill; fill-rule: nonzero; fill: url('#gradient-2');"/>
    <path d="M817 921 c-48 -10 -53 -16 -37 -45 11 -22 6 -36 -71 -175 -78 -140 -86 -151 -112 -151 -20 0 -40 -11 -63 -34 -38 -38 -45 -75 -14 -83 11 -3 20 -7 20 -10 0 -2 -16 -27 -35 -56 -19 -28 -35 -60 -35 -71 0 -16 6 -18 60 -14 67 5 106 32 141 100 l18 36 93 4 c51 3 100 8 109 12 13 5 20 -5 38 -53 36 -100 93 -125 177 -76 l43 25 -34 73 c-47 102 -74 187 -96 302 -25 131 -34 157 -68 189 -31 30 -76 39 -134 27z m38 -280 c8 -40 15 -77 15 -82 0 -5 -25 -9 -55 -9 -30 0 -55 4 -55 10 0 12 73 160 77 157 1 -2 9 -36 18 -76z" style="paint-order: fill; fill-rule: nonzero; fill: url('#gradient-0');"/>
    <path d="M1418 914 c-55 -17 -68 -32 -43 -50 12 -9 16 -21 12 -36 -10 -43 -138 -363 -179 -447 -45 -92 -42 -104 20 -90 81 18 112 64 173 254 23 72 44 134 46 138 3 5 18 -31 35 -79 35 -105 102 -245 135 -285 30 -35 52 -37 80 -6 39 42 213 514 213 577 0 27 -3 30 -34 30 -38 0 -80 -28 -100 -68 -8 -15 -29 -81 -46 -147 -18 -66 -35 -122 -37 -125 -11 -13 -38 47 -79 177 -57 181 -74 195 -196 157z" style="paint-order: fill; fill-rule: nonzero; fill: url('#gradient-1');"/>
    <path d="M3082 916 c-101 -33 -163 -105 -164 -191 -1 -56 34 -116 105 -177 78 -67 112 -155 72 -188 -29 -24 -61 3 -86 70 -12 34 -28 64 -35 67 -21 8 -79 -16 -104 -42 -30 -32 -21 -67 28 -114 67 -62 165 -88 235 -62 72 28 136 120 137 198 0 62 -12 85 -89 167 -39 42 -72 88 -76 105 -7 31 17 101 34 101 22 0 46 -55 48 -110 1 -30 2 -58 3 -62 1 -32 83 40 104 92 43 107 -77 190 -212 146z" style="paint-order: fill; fill-rule: nonzero; fill: url('#gradient-3');"/>
    <path d="M5380 920 c-161 -30 -357 -256 -368 -424 -6 -97 29 -155 118 -195 60 -27 132 -26 219 3 108 36 156 68 175 116 16 40 21 80 11 80 -3 0 -38 -18 -78 -40 -141 -77 -194 -84 -222 -30 -29 55 -25 58 88 62 90 3 106 6 135 27 40 31 65 68 58 87 -4 11 -34 14 -146 14 -105 0 -140 3 -140 13 1 19 35 88 62 123 27 36 105 104 119 104 30 0 -15 -146 -54 -179 -24 -19 -21 -41 4 -41 123 0 240 141 182 218 -41 55 -94 75 -163 62z" style="paint-order: fill; fill-rule: nonzero; fill: url('#gradient-7');"/>
    <path d="M3430 909 c-56 -23 -98 -85 -80 -119 9 -17 21 -20 85 -20 41 0 75 -4 75 -8 0 -4 -16 -45 -35 -90 -78 -186 -114 -342 -85 -377 29 -35 137 1 165 55 18 34 105 378 105 413 0 22 4 27 25 27 34 0 77 44 73 73 -2 12 -14 27 -28 33 -35 17 -268 27 -300 13z" style="paint-order: fill; fill-rule: nonzero; fill: url('#gradient-4');"/>
    <path d="M4094 896 c-33 -12 -74 -32 -91 -44 -59 -42 -136 -137 -172 -212 -31 -65 -36 -85 -36 -150 0 -64 4 -80 25 -110 31 -45 46 -57 100 -82 65 -31 164 -28 234 6 142 69 234 266 206 438 -11 70 -31 98 -71 98 -31 0 -112 -57 -117 -83 -2 -9 9 -43 25 -75 38 -77 37 -148 -3 -222 -30 -55 -84 -100 -120 -100 -32 0 -71 36 -85 78 -7 20 -13 69 -12 107 0 139 72 251 189 294 73 28 104 47 104 66 0 24 -103 18 -176 -9z" style="fill-rule: nonzero; paint-order: fill; fill: url('#gradient-5');"/>
    <path d="M4588 901 c-71 -10 -108 -33 -108 -66 0 -22 4 -25 36 -25 30 0 35 -3 29 -17 -32 -84 -116 -331 -130 -385 -30 -115 -4 -143 91 -98 55 27 68 56 143 311 33 110 61 202 63 204 2 1 13 -1 25 -6 34 -13 56 -64 48 -115 -10 -67 -43 -108 -130 -159 -15 -9 -15 -14 5 -67 45 -122 119 -198 190 -198 31 0 44 7 69 35 17 20 31 42 31 50 0 7 3 20 6 29 4 10 -9 22 -44 40 -57 29 -112 73 -112 89 0 7 19 21 42 32 89 43 132 155 89 232 -52 92 -184 135 -343 114z" style="paint-order: fill; fill-rule: nonzero; fill: url('#gradient-6');"/>
  </g>
  <text style="fill: rgb(255, 255, 255); font-family: Arial, sans-serif; font-size: 30px; font-style: italic; white-space: pre;" x="70.33" y="33.439">download on</text>
</svg>